HIERARCHY
ROOT hip
{
  OFFSET 0.0 0.0 0.0
  CHANNELS 6 Xposition Yposition Zposition Zrotation Yrotation Xrotation
  JOINT torso
  {
    OFFSET 0.0 0.0 0.0
    CHANNELS 3 Zrotation Xrotation Yrotation
    JOINT neck
    {
      OFFSET -31.42098999999993 328.8025209999999 74.3554680000002
      CHANNELS 3 Zrotation Xrotation Yrotation
      JOINT head
      {
        OFFSET 3.3519900000001144 303.81732099999994 206.53942900000015
        CHANNELS 3 Zrotation Xrotation Yrotation
        End Site
        {
          OFFSET 0.0 0.0 0.0
        }
      }
    }
    JOINT left_collar
    {
      OFFSET -31.42098999999993 328.8025209999999 74.3554680000002
      CHANNELS 3 Zrotation Xrotation Yrotation
      JOINT left_upper_arm
      {
        OFFSET -124.490479 -8.162841999999841 8.226441000000023
        CHANNELS 3 Zrotation Xrotation Yrotation
        JOINT left_forearm
        {
          OFFSET -253.595764 -1.5758060000000569 105.0729980000001
          CHANNELS 3 Zrotation Xrotation Yrotation
          JOINT left_hand
          {
            OFFSET -269.48803699999996 0.1478270000000066 -55.346191999999974
            CHANNELS 3 Zrotation Xrotation Yrotation
            End Site
            {
              OFFSET 0.0 0.0 0.0
            }
          }
        }
      }
    }
    JOINT right_collar
    {
      OFFSET -31.42098999999993 328.8025209999999 74.3554680000002
      CHANNELS 3 Zrotation Xrotation Yrotation
      JOINT right_upper_arm
      {
        OFFSET 162.02484099999998 0.46441600000002836 2.2303470000001653
        CHANNELS 3 Zrotation Xrotation Yrotation
        JOINT right_forearm
        {
          OFFSET 240.01246700000004 -25.835875999999985 121.34179699999959
          CHANNELS 3 Zrotation Xrotation Yrotation
          JOINT right_hand
          {
            OFFSET 252.48539699999992 18.910399999999868 -67.53466800000001
            CHANNELS 3 Zrotation Xrotation Yrotation
            End Site
            {
              OFFSET 0.0 0.0 0.0
            }
          }
        }
      }
    }
  }
}
MOTION
Frames: 8
Frame Time: 0.01
-240.23691133251694 262.2973810681488 1399.968810170207 3.3124523542398885 -4.917211295803088 1.0052834104654045 -0.43192059340470257 3.1304179183841883 0.3873484732916644 -2.6045980861909332 -0.24049469366950255 1.7768372107057226 0.0 0.0 0.0 -0.3929171846851358 0.2169497540883794 -3.9004974240425105 50.411835968314826 7.000097554820271 29.88529977531357 43.58022968310908 -5.089413684175513 -10.535775744602061 0.0 0.0 0.0 -0.7440233322115585 0.02327197079985956 3.5890812711794986 -49.508815903200265 8.416708494539328 -30.14527517794627 -52.27624664116221 -10.398751412881149 9.588505812120893 0.0 0.0 0.0
-240.2472895378705 262.28825385956486 1399.6003164012789 3.323567410702961 -4.9058851570586794 1.0024012374380173 -0.44959789039920384 3.1093172896672177 0.38891514012879624 -2.6121627372809453 -0.2064742328203317 1.7812019618992485 0.0 0.0 0.0 -0.38514060836892045 0.2152921545461506 -3.861495537638389 50.40397734513207 7.001115143797919 29.880558443842638 43.577715950288095 -5.091103265557982 -10.530784874275874 0.0 0.0 0.0 -0.7330315249390312 0.022912765153570477 3.6277157372232356 -49.51537370523916 8.417195545866361 -30.147444060338625 -52.275402842585436 -10.394586363950916 9.598123509021189 0.0 0.0 0.0
-240.2577278393639 262.2791353606545 1399.2279414374466 3.334265806697898 -4.894958224182924 0.9995189192735419 -0.4667893433289815 3.088311837746754 0.3903998737714534 -2.620115454969579 -0.1717903679609218 1.7858128900116303 0.0 0.0 0.0 -0.3774002013138868 0.21360042833880785 -3.822089083974146 50.39609330868171 7.002184827098455 29.87569943720606 43.57564239452376 -5.092843666403286 -10.52580778661241 0.0 0.0 0.0 -0.7220501419473522 0.022548423187339423 3.6668756820311152 -49.522002272421915 8.417712256211818 -30.149594966247875 -52.27466121967726 -10.390371752847694 9.607911764717237 0.0 0.0 0.0
-240.26777029117002 262.2694337130524 1398.8491749234727 3.344313585440299 -4.884850912527492 0.996907278818218 -0.4833171301079065 3.0676340235837447 0.39178833369000343 -2.6284018509199814 -0.13617321071698796 1.7906263786577756 0.0 0.0 0.0 -0.3697266370258589 0.21186688816782 -3.782204686694867 50.388241519535875 7.003399055839741 29.870550926480494 43.5741304224282 -5.09470685583669 -10.52070489987533 0.0 0.0 0.0 -0.7110895848583805 0.022178909932341673 3.706449323967929 -49.528673703728465 8.418261808329758 -30.15170984591553 -52.27402008574081 -10.386086409511895 9.617920703736777 0.0 0.0 0.0
-240.27689871526007 262.2584730937115 1398.461243993443 3.3534671064098625 -4.875966702260029 0.9948356598037168 -0.4990080463872216 3.0474942133171212 0.39306480854395215 -2.636966581317515 -0.09934684783723319 1.7955979942599594 0.0 0.0 0.0 -0.3621386876346707 0.21008435893247954 -3.741757924799505 50.38047617262369 7.004842561791953 29.864955788434244 43.57328623892187 -5.096763918365077 -10.515334026622503 0.0 0.0 0.0 -0.700155564820588 0.021804133421082946 3.7463567082902505 -49.53534391106571 8.418842530873162 -30.153771445284725 -52.27348600760371 -10.381706722890698 9.628210416648681 0.0 0.0 0.0
-240.2845349947868 262.24550570477663 1398.061202453099 3.361477827639219 -4.868677822750783 0.9935641517074609 -0.5136974187307445 3.028073390273668 0.3942123669562979 -2.645754158440009 -0.061042573619201415 1.800683345699479 0.0 0.0 0.0 -0.35464229258606333 0.2082466742088777 -3.700660143281284 50.372846859293574 7.006588300249098 29.858779631580465 43.57319564483343 -5.099082580308254 -10.509554865744287 0.0 0.0 0.0 -0.6892499718617622 0.021423965413522154 3.7865507546077812 -49.54195093116394 8.419447289694105 -30.155763560187868 -52.27307455595653 -10.377207882751211 9.638848328061261 0.0 0.0 0.0
-240.29004408106164 262.22972670190205 1397.6460207856742 3.3680976833275924 -4.86331285653748 0.9933364848664394 -0.527233289535588 3.0095179007346275 0.39521326256782724 -2.6547094518321965 -0.02101209528508541 1.8058387366010058 0.0 0.0 0.0 -0.3472301302241758 0.20634914848360067 -3.6588256668423895 50.36539757317938 7.008693830569865 29.851917974680802 43.573919207056086 -5.101724939519834 -10.503233110064292 0.0 0.0 0.0 -0.6783719476238056 0.021038268250761737 3.8270168128390445 -49.548414259041174 8.420062859401805 -30.15767178813048 -52.272810301191946 -10.372565258629889 9.649905858692568 0.0 0.0 0.0
-240.29273764178643 262.21029186158523 1397.212673063144 3.3730849358607817 -4.860146694380271 0.9943737996409026 -0.5394807963169059 2.991936433956383 0.3960495911813552 -2.6637778960386274 0.020959794178154998 1.8110216105313226 0.0 0.0 0.0 -0.3398817075112719 0.20438900082349779 -3.616179039044525 50.35816587637921 7.011198288499554 29.844302261077868 43.575487997478014 -5.1047454876179215 -10.49624400548857 0.0 0.0 0.0 -0.6675191094251063 0.02064692713632913 3.867770777860451 -49.554635300853946 8.420669317789699 -30.159484750138084 -52.27272600204791 -10.367755889556891 9.661454419848743 0.0 0.0 0.0
